# WaveFront *.obj file (generated by Autodesk ATF)

mtllib plano_con_techo.mtl

g Solid1

v -4.000000 1.500000 3.000000
v -4.000000 1.500000 0.000000
v 0.000000 1.500000 0.000000
v 0.000000 1.500000 3.000000
v 0.100000 1.500000 3.000000
v 0.100000 1.500000 0.000000
v 4.000000 1.500000 0.000000
v 4.000000 1.500000 3.000000
v 4.100000 1.600000 -0.100000
v -4.100000 1.600000 -0.100000
v -4.100000 1.600000 3.100000
v 4.100000 1.600000 3.100000
v 4.000000 -1.500000 2.100000
v 4.000000 0.500000 2.100000
v 4.100000 0.500000 2.100000
v 4.100000 -1.500000 2.100000
v 4.000000 0.500000 0.900000
v 4.100000 0.500000 0.900000
v 4.000000 -1.500000 0.900000
v 4.100000 -1.500000 0.900000
v 4.000000 -1.500000 3.000000
v 4.000000 -1.500000 0.000000
v 0.000000 -1.407920 2.100000
v 0.000000 0.592080 2.100000
v 0.100000 0.592080 2.100000
v 0.100000 -1.407920 2.100000
v 0.000000 0.592080 0.900000
v 0.100000 0.592080 0.900000
v 0.000000 -1.407920 0.900000
v 0.100000 -1.407920 0.900000
v 0.100000 -1.407920 3.000000
v 0.000000 -1.407920 3.000000
v 0.000000 -1.407920 0.000000
v 0.100000 -1.407920 0.000000
v -4.000000 -1.500000 0.000000
v -4.000000 -1.500000 3.000000
v -4.100000 -1.600000 -0.100000
v 4.100000 -1.600000 -0.100000
v 4.100000 -1.600000 3.100000
v -4.100000 -1.600000 3.100000
vt -150.000000 -400.000000 0.000000
vt 150.000000 -400.000000 0.000000
vt -150.000000 0.000000 0.000000
vt 150.000000 0.000000 0.000000
vt -150.000000 10.000000 0.000000
vt 150.000000 10.000000 0.000000
vt -150.000000 400.000000 0.000000
vt 150.000000 400.000000 0.000000
vt -160.000000 -410.000000 0.000000
vt 160.000000 -410.000000 0.000000
vt -160.000000 410.000000 0.000000
vt 160.000000 410.000000 0.000000
vt -200.000000 0.000000 0.000000
vt -0.000000 0.000000 0.000000
vt -200.000000 10.000000 0.000000
vt -0.000000 10.000000 0.000000
vt -120.000000 0.000000 0.000000
vt -0.000000 0.000000 0.000000
vt -120.000000 10.000000 0.000000
vt -0.000000 10.000000 0.000000
vt -200.000000 0.000000 0.000000
vt -0.000000 0.000000 0.000000
vt -200.000000 10.000000 0.000000
vt -0.000000 10.000000 0.000000
vt -60.000000 -150.000000 0.000000
vt -60.000000 50.000000 0.000000
vt -150.000000 -150.000000 0.000000
vt -150.000000 150.000000 0.000000
vt 60.000000 50.000000 0.000000
vt 150.000000 150.000000 0.000000
vt 150.000000 -150.000000 0.000000
vt 60.000000 -150.000000 0.000000
vt -200.000000 0.000000 0.000000
vt 0.000000 0.000000 0.000000
vt -200.000000 10.000000 0.000000
vt 0.000000 10.000000 0.000000
vt -120.000000 0.000000 0.000000
vt -0.000000 0.000000 0.000000
vt -120.000000 10.000000 0.000000
vt -0.000000 10.000000 0.000000
vt -200.000000 0.000000 0.000000
vt -0.000000 0.000000 0.000000
vt -200.000000 10.000000 0.000000
vt -0.000000 10.000000 0.000000
vt 90.000000 10.000000 0.000000
vt 0.000000 10.000000 0.000000
vt 90.000000 0.000000 0.000000
vt 0.000000 0.000000 0.000000
vt 210.000000 0.000000 0.000000
vt 300.000000 0.000000 0.000000
vt 210.000000 10.000000 0.000000
vt 300.000000 10.000000 0.000000
vt -60.000000 -145.396020 0.000000
vt -60.000000 54.603980 0.000000
vt -150.000000 -145.396020 0.000000
vt -150.000000 145.396020 0.000000
vt 60.000000 54.603980 0.000000
vt 150.000000 145.396020 0.000000
vt 150.000000 -145.396020 0.000000
vt 60.000000 -145.396020 0.000000
vt 150.000000 400.000000 0.000000
vt 60.000000 400.000000 0.000000
vt 150.000000 -400.000000 0.000000
vt -60.000000 400.000000 0.000000
vt -150.000000 -400.000000 0.000000
vt -150.000000 400.000000 0.000000
vt 60.000000 410.000000 0.000000
vt -60.000000 410.000000 0.000000
vt 160.000000 410.000000 0.000000
vt -160.000000 410.000000 0.000000
vt 160.000000 -410.000000 0.000000
vt -160.000000 -410.000000 0.000000
vt 60.000000 -145.396020 0.000000
vt 150.000000 -145.396020 0.000000
vt 60.000000 54.603980 0.000000
vt 150.000000 145.396020 0.000000
vt -150.000000 145.396020 0.000000
vt -60.000000 54.603980 0.000000
vt -150.000000 -145.396020 0.000000
vt -60.000000 -145.396020 0.000000
vt -150.000000 -150.000000 0.000000
vt 150.000000 -150.000000 0.000000
vt -150.000000 150.000000 0.000000
vt 150.000000 150.000000 0.000000
vt -160.000000 -160.000000 0.000000
vt 160.000000 -160.000000 0.000000
vt -160.000000 160.000000 0.000000
vt 160.000000 160.000000 0.000000
vt 60.000000 50.000000 0.000000
vt 60.000000 -150.000000 0.000000
vt 160.000000 -160.000000 0.000000
vt -60.000000 -150.000000 0.000000
vt -160.000000 -160.000000 0.000000
vt -60.000000 50.000000 0.000000
vt -160.000000 160.000000 0.000000
vt 160.000000 160.000000 0.000000
vt -410.000000 -160.000000 0.000000
vt 410.000000 -160.000000 0.000000
vt -410.000000 160.000000 0.000000
vt 410.000000 160.000000 0.000000
vt -10.000000 150.000000 0.000000
vt -400.000000 150.000000 0.000000
vt -10.000000 -140.792040 0.000000
vt -400.000000 -150.000000 0.000000
vt -0.000000 -140.792040 0.000000
vt 400.000000 -150.000000 0.000000
vt 400.000000 150.000000 0.000000
vt -0.000000 150.000000 0.000000
vt 0.000000 150.000000 0.000000
vt -400.000000 150.000000 0.000000
vt 0.000000 -140.792040 0.000000
vt -400.000000 -150.000000 0.000000
vt 400.000000 -150.000000 0.000000
vt 10.000000 -140.792040 0.000000
vt 400.000000 150.000000 0.000000
vt 10.000000 150.000000 0.000000
vt 410.000000 160.000000 0.000000
vt -410.000000 160.000000 0.000000
vt 410.000000 -160.000000 0.000000
vt -410.000000 -160.000000 0.000000
vn 0.000000 -100.000000 0.000000
vn 0.000000 -100.000000 0.000000
vn 0.000000 -100.000000 0.000000
vn 0.000000 -100.000000 0.000000
vn 0.000000 -100.000000 0.000000
vn 0.000000 -100.000000 0.000000
vn 0.000000 -100.000000 0.000000
vn 0.000000 -100.000000 0.000000
vn 0.000000 100.000000 0.000000
vn 0.000000 100.000000 0.000000
vn 0.000000 100.000000 0.000000
vn 0.000000 100.000000 0.000000
vn 0.000000 -0.000000 -100.000000
vn 0.000000 -0.000000 -100.000000
vn 0.000000 -0.000000 -100.000000
vn 0.000000 -0.000000 -100.000000
vn 0.000000 -100.000000 0.000000
vn 0.000000 -100.000000 0.000000
vn 0.000000 -100.000000 0.000000
vn 0.000000 -100.000000 0.000000
vn 0.000000 0.000000 100.000000
vn 0.000000 0.000000 100.000000
vn 0.000000 0.000000 100.000000
vn 0.000000 0.000000 100.000000
vn -100.000000 0.000000 0.000000
vn -100.000000 0.000000 0.000000
vn -100.000000 0.000000 0.000000
vn -100.000000 0.000000 0.000000
vn -100.000000 0.000000 0.000000
vn -100.000000 0.000000 0.000000
vn -100.000000 0.000000 0.000000
vn -100.000000 0.000000 0.000000
vn 0.000000 0.000000 -100.000000
vn 0.000000 0.000000 -100.000000
vn 0.000000 0.000000 -100.000000
vn 0.000000 0.000000 -100.000000
vn 0.000000 -100.000000 0.000000
vn 0.000000 -100.000000 0.000000
vn 0.000000 -100.000000 0.000000
vn 0.000000 -100.000000 0.000000
vn 0.000000 0.000000 100.000000
vn 0.000000 0.000000 100.000000
vn 0.000000 0.000000 100.000000
vn 0.000000 0.000000 100.000000
vn 0.000000 -100.000000 -0.000000
vn 0.000000 -100.000000 -0.000000
vn 0.000000 -100.000000 -0.000000
vn 0.000000 -100.000000 -0.000000
vn 0.000000 -100.000000 -0.000000
vn 0.000000 -100.000000 -0.000000
vn 0.000000 -100.000000 -0.000000
vn 0.000000 -100.000000 -0.000000
vn -100.000000 0.000000 0.000000
vn -100.000000 0.000000 0.000000
vn -100.000000 0.000000 0.000000
vn -100.000000 0.000000 0.000000
vn -100.000000 0.000000 0.000000
vn -100.000000 0.000000 0.000000
vn -100.000000 0.000000 0.000000
vn -100.000000 0.000000 0.000000
vn 0.000000 100.000000 0.000000
vn 0.000000 100.000000 0.000000
vn 0.000000 100.000000 0.000000
vn 0.000000 100.000000 0.000000
vn 0.000000 100.000000 0.000000
vn 0.000000 100.000000 0.000000
vn 0.000000 100.000000 0.000000
vn 0.000000 100.000000 0.000000
vn 0.000000 -100.000000 0.000000
vn 0.000000 -100.000000 0.000000
vn 0.000000 -100.000000 0.000000
vn 0.000000 -100.000000 0.000000
vn 100.000000 0.000000 0.000000
vn 100.000000 0.000000 0.000000
vn 100.000000 0.000000 0.000000
vn 100.000000 0.000000 0.000000
vn 100.000000 0.000000 0.000000
vn 100.000000 0.000000 0.000000
vn 100.000000 0.000000 0.000000
vn 100.000000 0.000000 0.000000
vn 100.000000 0.000000 0.000000
vn 100.000000 0.000000 0.000000
vn 100.000000 0.000000 0.000000
vn 100.000000 0.000000 0.000000
vn -100.000000 0.000000 0.000000
vn -100.000000 0.000000 0.000000
vn -100.000000 0.000000 0.000000
vn -100.000000 0.000000 0.000000
vn 100.000000 0.000000 0.000000
vn 100.000000 0.000000 0.000000
vn 100.000000 0.000000 0.000000
vn 100.000000 0.000000 0.000000
vn 100.000000 0.000000 0.000000
vn 100.000000 0.000000 0.000000
vn 100.000000 0.000000 0.000000
vn 100.000000 0.000000 0.000000
vn 0.000000 0.000000 100.000000
vn 0.000000 0.000000 100.000000
vn 0.000000 0.000000 100.000000
vn 0.000000 0.000000 100.000000
vn 0.000000 0.000000 -100.000000
vn 0.000000 0.000000 -100.000000
vn 0.000000 0.000000 -100.000000
vn 0.000000 0.000000 -100.000000
vn 0.000000 0.000000 -100.000000
vn 0.000000 0.000000 -100.000000
vn 0.000000 0.000000 -100.000000
vn 0.000000 0.000000 -100.000000
vn 0.000000 0.000000 100.000000
vn 0.000000 0.000000 100.000000
vn 0.000000 0.000000 100.000000
vn 0.000000 0.000000 100.000000
vn 0.000000 0.000000 100.000000
vn 0.000000 0.000000 100.000000
vn 0.000000 0.000000 100.000000
vn 0.000000 0.000000 100.000000
vn 0.000000 0.000000 -100.000000
vn 0.000000 0.000000 -100.000000
vn 0.000000 0.000000 -100.000000
vn 0.000000 0.000000 -100.000000
usemtl 191,191,191
f 1/1/1 2/2/2 4/3/3
f 4/3/3 2/2/2 3/4/4
f 5/5/5 6/6/6 8/7/7
f 8/7/7 6/6/6 7/8/8
f 10/9/9 11/10/10 9/11/11
f 9/11/11 11/10/10 12/12/12
f 13/13/13 14/14/14 16/15/15
f 16/15/15 14/14/14 15/16/16
f 14/17/17 17/18/18 15/19/19
f 15/19/19 17/18/18 18/20/20
f 17/21/21 19/22/22 18/23/23
f 18/23/23 19/22/22 20/24/24
f 19/25/25 17/26/26 22/27/27
f 22/27/27 17/26/26 7/28/28
f 7/28/28 17/26/26 14/29/29
f 7/28/28 14/29/29 8/30/30
f 8/30/30 14/29/29 21/31/31
f 21/31/31 14/29/29 13/32/32
f 23/33/33 24/34/34 26/35/35
f 26/35/35 24/34/34 25/36/36
f 24/37/37 27/38/38 25/39/39
f 25/39/39 27/38/38 28/40/40
f 27/41/41 29/42/42 28/43/43
f 28/43/43 29/42/42 30/44/44
f 26/45/45 31/46/46 23/47/47
f 23/47/47 31/46/46 32/48/48
f 29/49/49 33/50/50 30/51/51
f 30/51/51 33/50/50 34/52/52
f 29/53/53 27/54/54 33/55/55
f 33/55/55 27/54/54 3/56/56
f 3/56/56 27/54/54 24/57/57
f 3/56/56 24/57/57 4/58/58
f 4/58/58 24/57/57 32/59/59
f 32/59/59 24/57/57 23/60/60
f 21/61/61 13/62/62 36/63/63
f 36/63/63 13/62/62 19/64/64
f 36/63/63 19/64/64 35/65/65
f 35/65/65 19/64/64 22/66/66
f 16/67/67 20/68/68 13/62/62
f 13/62/62 20/68/68 19/64/64
f 38/69/69 39/70/70 37/71/71
f 37/71/71 39/70/70 40/72/72
f 30/73/73 34/74/74 28/75/75
f 28/75/75 34/74/74 6/76/76
f 28/75/75 6/76/76 5/77/77
f 28/75/75 5/77/77 25/78/78
f 25/78/78 5/77/77 31/79/79
f 25/78/78 31/79/79 26/80/80
f 36/81/81 35/82/82 1/83/83
f 1/83/83 35/82/82 2/84/84
f 37/85/85 40/86/86 10/87/87
f 10/87/87 40/86/86 11/88/88
f 18/89/89 20/90/90 38/91/91
f 38/91/91 20/90/90 16/92/92
f 38/91/91 16/92/92 39/93/93
f 39/93/93 16/92/92 15/94/94
f 39/93/93 15/94/94 12/95/95
f 12/95/95 15/94/94 18/89/89
f 12/95/95 18/89/89 9/96/96
f 9/96/96 18/89/89 38/91/91
f 40/97/97 39/98/98 11/99/99
f 11/99/99 39/98/98 12/100/100
f 5/101/101 8/102/102 31/103/103
f 31/103/103 8/102/102 21/104/104
f 31/103/103 21/104/104 32/105/105
f 32/105/105 21/104/104 36/106/106
f 32/105/105 36/106/106 1/107/107
f 1/107/107 4/108/108 32/105/105
f 3/109/109 2/110/110 33/111/111
f 33/111/111 2/110/110 35/112/112
f 33/111/111 35/112/112 22/113/113
f 33/111/111 22/113/113 34/114/114
f 34/114/114 22/113/113 7/115/115
f 34/114/114 7/115/115 6/116/116
f 10/117/117 9/118/118 37/119/119
f 37/119/119 9/118/118 38/120/120
# 40 vertices
# 120 texture params
# 120 normals
# 76 facets

# 1 groups
