# WaveFront *.obj file (generated by Autodesk ATF)

mtllib rueda_candado.mtl

g Solid1

v -0.002018 0.008005 0.000000
v -0.006338 0.005290 0.000000
v -0.006338 0.005290 0.005000
v -0.002018 0.008005 0.005000
v 0.003073 0.007662 0.000000
v 0.003073 0.007662 0.005000
v 0.006990 0.004393 0.000000
v 0.006990 0.004393 0.005000
v 0.008237 -0.000555 0.000000
v 0.008237 -0.000555 0.005000
v 0.006338 -0.005290 0.000000
v 0.006338 -0.005290 0.005000
v 0.002018 -0.008005 0.000000
v 0.002018 -0.008005 0.005000
v -0.003073 -0.007662 0.000000
v -0.003073 -0.007662 0.005000
v -0.006990 -0.004393 0.000000
v -0.006990 -0.004393 0.005000
v -0.008237 0.000555 0.000000
v -0.008237 0.000555 0.005000
vt -0.000000 0.000000 0.000000
vt 0.510218 0.000000 0.000000
vt -0.000000 0.500000 0.000000
vt 0.510218 0.500000 0.000000
vt 0.000000 0.000000 0.000000
vt 0.510218 0.000000 0.000000
vt 0.000000 0.500000 0.000000
vt 0.510218 0.500000 0.000000
vt 0.000000 0.000000 0.000000
vt 0.510218 0.000000 0.000000
vt 0.000000 0.500000 0.000000
vt 0.510218 0.500000 0.000000
vt 0.000000 0.000000 0.000000
vt 0.510218 0.000000 0.000000
vt -0.000000 0.500000 0.000000
vt 0.510218 0.500000 0.000000
vt 0.000000 0.000000 0.000000
vt 0.510218 0.000000 0.000000
vt 0.000000 0.500000 0.000000
vt 0.510218 0.500000 0.000000
vt 0.000000 0.000000 0.000000
vt 0.510218 0.000000 0.000000
vt -0.000000 0.500000 0.000000
vt 0.510218 0.500000 0.000000
vt 0.000000 0.000000 0.000000
vt 0.510218 0.000000 0.000000
vt 0.000000 0.500000 0.000000
vt 0.510218 0.500000 0.000000
vt 0.000000 0.000000 0.000000
vt 0.510218 0.000000 0.000000
vt 0.000000 0.500000 0.000000
vt 0.510218 0.500000 0.000000
vt 0.000000 0.000000 0.000000
vt 0.510218 0.000000 0.000000
vt -0.000000 0.500000 0.000000
vt 0.510218 0.500000 0.000000
vt -0.000000 0.000000 0.000000
vt 0.510218 0.000000 0.000000
vt -0.000000 0.500000 0.000000
vt 0.510218 0.500000 0.000000
vt -0.823686 0.055457 0.000000
vt 0.698973 0.439285 0.000000
vt -0.633779 0.529016 0.000000
vt 0.307276 0.766235 0.000000
vt -0.201790 0.800509 0.000000
vt 0.823686 -0.055457 0.000000
vt -0.698973 -0.439285 0.000000
vt 0.633779 -0.529016 0.000000
vt -0.307276 -0.766235 0.000000
vt 0.201790 -0.800509 0.000000
vt 0.633779 0.529016 0.000000
vt -0.698973 0.439285 0.000000
vt 0.823686 0.055457 0.000000
vt -0.823686 -0.055457 0.000000
vt 0.698973 -0.439285 0.000000
vt -0.633779 -0.529016 0.000000
vt 0.307276 -0.766235 0.000000
vt -0.201790 -0.800509 0.000000
vt 0.201790 0.800509 0.000000
vt -0.307276 0.766235 0.000000
vn -53.211135 84.667439 0.000000
vn -53.211135 84.667439 0.000000
vn -53.211135 84.667439 0.000000
vn -53.211135 84.667439 0.000000
vn 6.717559 99.774117 0.000000
vn 6.717559 99.774117 0.000000
vn 6.717559 99.774117 0.000000
vn 6.717559 99.774117 0.000000
vn 64.080374 76.770474 0.000000
vn 64.080374 76.770474 0.000000
vn 64.080374 76.770474 0.000000
vn 64.080374 76.770474 0.000000
vn 96.966664 24.443119 0.000000
vn 96.966664 24.443119 0.000000
vn 96.966664 24.443119 0.000000
vn 96.966664 24.443119 0.000000
vn 92.814984 -37.220676 0.000000
vn 92.814984 -37.220676 0.000000
vn 92.814984 -37.220676 0.000000
vn 92.814984 -37.220676 0.000000
vn 53.211135 -84.667439 0.000000
vn 53.211135 -84.667439 0.000000
vn 53.211135 -84.667439 0.000000
vn 53.211135 -84.667439 0.000000
vn -6.717559 -99.774117 0.000000
vn -6.717559 -99.774117 0.000000
vn -6.717559 -99.774117 0.000000
vn -6.717559 -99.774117 0.000000
vn -64.080374 -76.770474 0.000000
vn -64.080374 -76.770474 0.000000
vn -64.080374 -76.770474 0.000000
vn -64.080374 -76.770474 0.000000
vn -96.966664 -24.443119 0.000000
vn -96.966664 -24.443119 0.000000
vn -96.966664 -24.443119 0.000000
vn -96.966664 -24.443119 0.000000
vn -92.814984 37.220676 0.000000
vn -92.814984 37.220676 0.000000
vn -92.814984 37.220676 0.000000
vn -92.814984 37.220676 0.000000
vn 0.000000 0.000000 100.000000
vn 0.000000 0.000000 100.000000
vn 0.000000 0.000000 100.000000
vn 0.000000 0.000000 100.000000
vn 0.000000 0.000000 100.000000
vn 0.000000 0.000000 100.000000
vn 0.000000 0.000000 100.000000
vn 0.000000 0.000000 100.000000
vn 0.000000 0.000000 100.000000
vn 0.000000 0.000000 100.000000
vn 0.000000 0.000000 -100.000000
vn 0.000000 0.000000 -100.000000
vn 0.000000 0.000000 -100.000000
vn 0.000000 0.000000 -100.000000
vn 0.000000 0.000000 -100.000000
vn 0.000000 0.000000 -100.000000
vn 0.000000 0.000000 -100.000000
vn 0.000000 0.000000 -100.000000
vn 0.000000 0.000000 -100.000000
vn 0.000000 0.000000 -100.000000
usemtl 191,191,191
f 1/1/1 2/2/2 4/3/3
f 4/3/3 2/2/2 3/4/4
f 5/5/5 1/6/6 6/7/7
f 6/7/7 1/6/6 4/8/8
f 7/9/9 5/10/10 8/11/11
f 8/11/11 5/10/10 6/12/12
f 9/13/13 7/14/14 10/15/15
f 10/15/15 7/14/14 8/16/16
f 11/17/17 9/18/18 12/19/19
f 12/19/19 9/18/18 10/20/20
f 13/21/21 11/22/22 14/23/23
f 14/23/23 11/22/22 12/24/24
f 15/25/25 13/26/26 16/27/27
f 16/27/27 13/26/26 14/28/28
f 17/29/29 15/30/30 18/31/31
f 18/31/31 15/30/30 16/32/32
f 19/33/33 17/34/34 20/35/35
f 20/35/35 17/34/34 18/36/36
f 2/37/37 19/38/38 3/39/39
f 3/39/39 19/38/38 20/40/40
f 20/41/41 8/42/42 3/43/43
f 3/43/43 8/42/42 6/44/44
f 3/43/43 6/44/44 4/45/45
f 8/42/42 20/41/41 10/46/46
f 10/46/46 20/41/41 18/47/47
f 10/46/46 18/47/47 12/48/48
f 12/48/48 18/47/47 16/49/49
f 12/48/48 16/49/49 14/50/50
f 2/51/51 7/52/52 19/53/53
f 19/53/53 7/52/52 9/54/54
f 19/53/53 9/54/54 17/55/55
f 17/55/55 9/54/54 11/56/56
f 17/55/55 11/56/56 15/57/57
f 15/57/57 11/56/56 13/58/58
f 1/59/59 5/60/60 2/51/51
f 2/51/51 5/60/60 7/52/52
# 20 vertices
# 60 texture params
# 60 normals
# 36 facets

# 1 groups
